<svg xmlns="http://www.w3.org/2000/svg" viewBox="0 0 26.93 28">
    <title>action</title>
    <g id="Capa_2" data-name="Capa 2">
        <g id="Layer_1" data-name="Layer 1">
            <path fill="white" d="M14.05,26.07c-2.37.69-4.44,1.37-6.56,1.87-1.13.27-1.8-.5-1.95-1.88q-.38-3.69-.77-7.39c0-.44-.11-.87-.18-1.31a1.56,1.56,0,0,0-1.92-1.48A1.27,1.27,0,0,1,1.11,15c-1.63-3.78-1.8-3.15,1.74-4.81,3-1.43,6.08-2.84,9.11-4.3.74-.36,1.21-.45,1.54.48.24.68.78.83,1.46.49q1.45-.73,2.92-1.39c.73-.33,1-.84.56-1.54s-.27-1,.48-1.35c1.66-.69,3.3-1.43,4.89-2.26a1.51,1.51,0,0,1,1.89.06,2.39,2.39,0,0,1,.88,2.09,1.69,1.69,0,0,0,.14,1A1.85,1.85,0,0,1,25.68,6.1C23.79,7.06,21.9,8,20,8.89c-.74.34-.93.62-.55,1.41,1.06,2.23.58,3.45-1.7,4.48-1.5.68-2.89,1.71-4.73,1.42-.64-.1-1.06.46-1.26,1.09A1.4,1.4,0,0,0,12.3,19c.57.37.79.6.3,1.25a1.41,1.41,0,0,0,.27,2c.2.2.7.36.4.73C12.25,24.13,12.67,25.09,14.05,26.07ZM15.59,13.9c-.85.23-1.33-.27-1.81-.75-.24-.24-.43-.68-.85-.36s-.24.64-.12,1A1.76,1.76,0,0,0,15,14.89a16.5,16.5,0,0,0,2.8-1.31,1.69,1.69,0,0,0,.69-2.28,1.79,1.79,0,0,0-2.29-1c-2,.69-2.78,1.47-.77,3.25C15.51,13.62,15.52,13.72,15.59,13.9Z"/>
        </g>
    </g>
</svg>