<svg xmlns="http://www.w3.org/2000/svg" viewBox="0 0 28.42 28.45">
    <title>adventure</title>
    <g id="Capa_2" data-name="Capa 2">
        <g id="Layer_1" data-name="Layer 1">
            <path fill="white" d="M25,5.24c1.09,1,1.92,1.81,2.79,2.57a1.35,1.35,0,0,1,.46,1.37c-.37,2.72-1,5.45-.05,8.18.22.67-.1.91-.68,1.12a38.1,38.1,0,0,0-4.74,2.06c1.55-.1,3.1-.17,4.65-.32.76-.08,1,.15,1,.89,0,2.08,0,4.16,0,6.24,0,.82-.29,1-1.05,1-3.91-.25-7.82-.49-11.73-.68a68,68,0,0,0-8.48.59c-1.68.13-1.66.16-1.64-1.56,0-1.43,0-2.87,0-4.32-.44,0-.34.37-.41.6C4.74,24,4.39,25.14,4,26.24c-.68,2.17-1.12,2.41-3.39,2.09-.71-.1-.58-.53-.55-.95.17-2.47.22-5,.56-7.41A37.54,37.54,0,0,0,.22,8.78C.16,8.39.13,8,.06,7.37l3.22,2,.15-.19c-.72-.93-1.38-1.93-2.18-2.79A4.6,4.6,0,0,1,0,2.8C.1,0,0-.06,2.83.15a148.11,148.11,0,0,0,24-.1C28.4-.09,28.4-.06,28.4,1.59c0,1.2-.05,2.4,0,3.6.06,1-.33,1-1.08.71A5.23,5.23,0,0,0,25,5.24ZM16,19a3.59,3.59,0,0,0-.47-.58c-1.18-.8-1.16-1.56,0-2.43.65-.5-.06-.79-.31-1.12s-.64-.58-1-.06c-.68.89-1.38,1.23-2.15.07-.43-.65-.81-.3-1.25.08s-.54.84,0,1.22c1.06.73.9,1.39-.05,2.06-.64.45-.31.8.09,1.22s.8.68,1.22.05c.71-1.05,1.37-1,2.08,0,.15.21.33.63.75.33S15.57,19.29,16,19Zm-1.17,4.64c-.59,0-1.27-.35-1.36.74s.67.83,1.24.92c.31,0,.64,0,1,.09.84.2.75-.46.89-.92s-.23-.67-.65-.72ZM8.84,21.57A11.25,11.25,0,0,1,8,19.94c-.22-.71-.61-.67-1.17-.47s-.67.57-.38,1.09.53,1.06.82,1.57c.17.29.41.52.76.22S8.81,22,8.84,21.57ZM5.4,16c.07,1.84.25,2.26,1,2.21.46,0,1.21-.11.85-.73s.68-2.3-1.15-2.35C5.35,15.08,5.33,15.51,5.4,16Zm3.36-4.09L8,11.21c-.23-.2-.46-.32-.72,0A10,10,0,0,0,5.8,12.92c-.27.45-.09.66.34.77s.73.49,1,.13C7.57,13.17,8.14,12.62,8.76,11.88ZM20,5.21c-.37.12-.52.51-.76.82s0,.48.24.66c.47.37.94.74,1.38,1.15a.49.49,0,0,0,.81,0c.22-.26.64-.39.59-.82A6.32,6.32,0,0,0,20,5.21Zm3.06,7.92c-1.19-.16-.91,1-1.54,1.34-.84.43-.14,1,.09,1.36.34.57.68.09,1-.13a3.64,3.64,0,0,0,1.1-1.52C24,13.35,23.73,13.07,23.07,13.13ZM8.5,5.83c.52,0,.93,0,1-.55A1.33,1.33,0,0,1,10,4.35c.77-.61,0-1-.25-1.35-.41-.53-.69,0-1,.25A3.1,3.1,0,0,0,7.86,4.9C7.65,5.6,7.91,5.89,8.5,5.83Zm9.17-.33c.52,0,.59-.43.79-.74A.46.46,0,0,0,18.24,4c-.61-.28-1.21-.58-1.82-.85-.33-.15-.61-.11-.74.31s-.46.8,0,1.07A17.65,17.65,0,0,0,17.67,5.5ZM12.09,24.07c.15-.41-.06-.6-.48-.72a3.8,3.8,0,0,1-1.21-.45c-.71-.51-.95,0-1.27.47-.48.7.22.81.56,1a9.36,9.36,0,0,0,1.32.53C11.8,25.24,12.08,24.86,12.09,24.07Zm8.67,1.68c.08-.35-.23-.47-.54-.58a12.89,12.89,0,0,1-1.46-.52c-.62-.31-.82,0-1,.52s-.11.9.51,1.06a6,6,0,0,1,1.24.43C20.42,27.12,20.57,26.48,20.76,25.74ZM9.78,9.09c0-.45-.07-.8-.09-1.16,0-.58-.27-.86-.91-.77s-.88.3-.76.92A2.83,2.83,0,0,1,8.14,9c-.15.9.31,1.27,1.09,1.24C10.18,10.24,9.51,9.4,9.78,9.09Zm14.13,1.76c-.26-.74.16-1.81-.87-2.18-.24-.09-1.3.13-1,.79s-.49,2.07,1,2.29C23.7,11.84,24,11.58,23.91,10.85ZM11.26,2.66c0,.84.82,1.25,2.38,1.27.75,0,.76-.74.69-1C14,1.75,12.88,2.2,12.07,2,11.67,2,11.13,1.95,11.26,2.66Zm6,13.58c.33.44,0,1.3.76,1.09s1.78.08,2-1c.08-.32,0-1.17-.67-1S17.72,15.46,17.21,16.24Z"/>
        </g>
    </g>
</svg>