<svg xmlns="http://www.w3.org/2000/svg" viewBox="0 0 29.95 28.45">
    <title>animation</title>
    <g id="Capa_2" data-name="Capa 2">
        <g id="Layer_1" data-name="Layer 1">
            <path fill="white" d="M30,11l-.35.58c-.83,1.32-1.57,2.7-2.51,3.94a11.76,11.76,0,0,0-2.44,7.45c0,1.55-.24,3.11-.25,4.66,0,.91-.35.94-1.07.74a36,36,0,0,1-4.5-1.21c-3.44-1.49-6.64-.19-9.9.58-.81.19-1.63.39-2.43.64s-1,.08-1-.72c-.14-2.63-.38-5.26-.54-7.89a3.14,3.14,0,0,0-.51-1.56C3,16,1.7,13.77.28,11.6c-.45-.69-.38-1,.4-1.27,1.76-.65,3.45-1.5,5.24-2.06A9.35,9.35,0,0,0,10.8,4.68C11.84,3.26,13.08,2,14.15.6c.59-.77.94-.83,1.57,0,1.56,2,3.22,3.87,4.82,5.82a3.55,3.55,0,0,0,1.52,1.1q3.63,1.42,7.22,2.91C29.53,10.5,30,10.46,30,11ZM14.17,21.79c2.43.06,4.54-.75,5.46-1.85.23-.28.53-.57.35-.95s-.63-.3-1-.22a16.94,16.94,0,0,1-8.19,0c-.34-.09-.77-.18-1,.2s.12.68.36.93A6.23,6.23,0,0,0,14.17,21.79Zm4.49-6.72a2.25,2.25,0,0,0,2.13-2.16,2.22,2.22,0,0,0-2.09-2.2,2.3,2.3,0,0,0-2.22,2.22A2.31,2.31,0,0,0,18.66,15.07Zm-5.32-2.18a2.12,2.12,0,0,0-2.09-2.15,2.24,2.24,0,0,0-2.19,2.11,2.28,2.28,0,0,0,2.2,2.23A2.15,2.15,0,0,0,13.34,12.89Z"/>
        </g>
    </g>
</svg>