<svg xmlns="http://www.w3.org/2000/svg" viewBox="0 0 27.87 28.16">
    <title>biography</title>
    <g id="Capa_2" data-name="Capa 2">
        <g id="Layer_1" data-name="Layer 1">
            <path fill="white" d="M13.93,28.15a65.54,65.54,0,0,1-11.7-.72C-.09,27-.39,26.41.38,24.2c.62-1.77,2.08-2.45,3.62-3,1.08-.41,2.22-.65,3.31-1a3.22,3.22,0,0,0,1.92-1.35,1.38,1.38,0,0,0-.1-1.86C7.51,15.34,6.82,13.2,5.9,11.24A3.46,3.46,0,0,1,6.34,7.1c.45-.45.36-1.13.49-1.7.92-4,2.65-5.37,6.7-5.4.56,0,1.12,0,1.68,0a5.5,5.5,0,0,1,5.38,4.26,14,14,0,0,0,1.34,3.65,3.78,3.78,0,0,1-.18,3.69c-1,1.91-1.63,4-3.22,5.55-.55.55-.09,1.7.8,2.35a8.18,8.18,0,0,0,2.76,1.11,14.6,14.6,0,0,1,3.36,1.24,3.66,3.66,0,0,1,1.69,1.65c1.26,2.91,1,3.53-1.74,4A70.78,70.78,0,0,1,13.93,28.15Z"/>
        </g>
    </g>
</svg>