<svg xmlns="http://www.w3.org/2000/svg" viewBox="0 0 25.06 28.37">
    <title>comedy</title>
    <g id="Capa_2" data-name="Capa 2">
        <g id="Layer_1" data-name="Layer 1">
            <path fill="white" d="M10.21,0c4,.05,7.58,0,11.05.9a15.45,15.45,0,0,1,1.48.45c2.08.77,2.36,1.23,2.31,3.46a46.7,46.7,0,0,1-2,13.46,19.43,19.43,0,0,1-3.34,6.45c-4.16,5-10.79,4.83-14.61-.46a24.7,24.7,0,0,1-3.94-9.69A59.2,59.2,0,0,1,0,4.72C-.07,2.65.33,2.07,2.32,1.37a17,17,0,0,1,3-.8C7.1.3,8.9.15,10.21,0ZM7.06,17.65c.66,3.16,3.3,4.84,6.56,4.39,2.24-.31,4.34-2.39,4.24-4.27C14.3,20.14,10.75,20.09,7.06,17.65Zm.65-8.56A4.11,4.11,0,0,0,5,10.71c-.32.38-.13.61.19.88a4.29,4.29,0,0,0,5.61-.07c.26-.24.45-.44.1-.77A4.88,4.88,0,0,0,7.71,9.09Zm9.64,0a4.73,4.73,0,0,0-3.16,1.63c-.22.21-.28.41,0,.7a4.42,4.42,0,0,0,5.78.09c.25-.25.43-.45.13-.79A4.2,4.2,0,0,0,17.35,9.1Z"/>
        </g>
    </g>
</svg>