<svg xmlns="http://www.w3.org/2000/svg" viewBox="0 0 29.49 28.01">
    <title>crime</title>
    <g id="Capa_2" data-name="Capa 2">
        <g id="Layer_1" data-name="Layer 1">
            <path  fill="white" d="M15.74,22.31a11.49,11.49,0,0,0,4.47-1.59c.32-.18.61-.55,1.08-.29,1.47.83,3.15,1.13,4.69,1.81a5.64,5.64,0,0,1,3.45,4.16c.15.68,0,1-.77,1.09a77.18,77.18,0,0,1-20-.25A25.81,25.81,0,0,1,.63,24.69c-.84-.45-.79-.8-.13-1.36a9.75,9.75,0,0,1,3.17-1.64,14.94,14.94,0,0,0,3.43-1.39c.89-.58,1.14-1.11.49-2.23A14.44,14.44,0,0,1,6.95,4,6.29,6.29,0,0,1,12.89,0c.68,0,1.36-.05,2,0a7,7,0,0,1,6.69,4.83,14.63,14.63,0,0,1-1,13.21,10.34,10.34,0,0,1-3.9,3.65Zm1.34-9.93c1.27,0,3.06-1.35,3-2.26,0-1.11-1.24-1.7-3-1.49l-.47.08c-1.16.27-1.85,1-1.75,1.93A2.13,2.13,0,0,0,17.09,12.37Zm-6.62-3.8c-1.64,0-2.64,1.14-2.1,2.21a3.25,3.25,0,0,0,4,1.18,1.54,1.54,0,0,0,.23-2.71A3.59,3.59,0,0,0,10.47,8.57ZM14.1,18.86a7.84,7.84,0,0,0,1.17-.29c.8-.33,1.24-.91.86-1.78s-2.39-1.23-3.43-.59a1.17,1.17,0,0,0-.48,1.8,1.4,1.4,0,0,0,.63.51A10.3,10.3,0,0,0,14.1,18.86Z"/>
        </g>
    </g>
</svg>