<svg xmlns="http://www.w3.org/2000/svg" viewBox="0 0 26.14 28.04">
    <title>dectective</title>
    <g id="Capa_2" data-name="Capa 2">
        <g id="Layer_1" data-name="Layer 1">
            <path fill="white" d="M17.49,28c-3.29-.15-5.41-2.15-6.95-5s-2.07-5.69-2.86-8.61c-1-3.83-2.19-7.61-4.86-10.69A15.51,15.51,0,0,0,.6,1.59C.17,1.26-.26.88.19.32S1.11,0,1.55.36a26.44,26.44,0,0,1,6.88,8.2c1.45,2.57,2.56,5.33,4.22,7.79a9.46,9.46,0,0,0,2,2.33c1,.74,1.57.69,2.36-.27.53-.65,1-1.37,1.48-2a1.55,1.55,0,0,1,2.1-.52c1.44.69,2.9,1.34,4.35,2a1.83,1.83,0,0,1,1.11,1.83C26.1,23.57,21.59,28,17.49,28Z"/>
            <path fill="white" d="M21.35.07A4.11,4.11,0,0,1,22.92,4c-.23,2-.85,4-.26,6.42A4.82,4.82,0,0,1,21,5.91C21.07,4.06,21.6,2.25,21.35.07Z"/>
            <path  fill="white" d="M24.14,15.37c.53-2.31,0-4.39.07-6.48a2.91,2.91,0,0,1,1.92-2.64c-.62,2.09-.1,4-.18,5.93A3.69,3.69,0,0,1,24.14,15.37Z"/>
        </g>
    </g>
</svg>