<svg xmlns="http://www.w3.org/2000/svg" viewBox="0 0 25.08 28.29">
    <title>drama</title>
    <g id="Capa_2" data-name="Capa 2">
        <g   id="Layer_1" data-name="Layer 1">
            <path fill="white" d="M12.48,0a29.62,29.62,0,0,1,9.94,1.13c2.35.77,2.73,1.34,2.65,3.8A43,43,0,0,1,22.25,20.3a18.65,18.65,0,0,1-2.32,4c-3.86,5.16-10.49,5.28-14.52.25C2.95,21.51,1.82,17.85,1,14.08A64,64,0,0,1,0,4.31,2.62,2.62,0,0,1,1.87,1.46,23.13,23.13,0,0,1,9.12,0C10.23,0,11.36,0,12.48,0ZM7,22A10.7,10.7,0,0,1,18,21.93a5.38,5.38,0,0,0-5.17-4.14C10.12,17.66,8.07,19,7,22Zm10.26-9.48A4.54,4.54,0,0,0,20,11.49c.43-.32.37-.58,0-1a3.57,3.57,0,0,0-5.78.09c-.32.4-.24.63.13.86A5.47,5.47,0,0,0,17.24,12.54Zm-9.35,0c1.1,0,3.2-1,3.22-1.53s-2-1.83-3-1.94S4.83,10.25,4.85,11c0,.52,1.76,1.47,2.81,1.52Z"/>
        </g>
    </g>
</svg>