<svg xmlns="http://www.w3.org/2000/svg" viewBox="0 0 28.65 28.14">
    <title>family</title>
    <g id="Capa_2" data-name="Capa 2">
        <g id="Layer_1" data-name="Layer 1">
            <path fill="white" d="M4.75,17.7c-.68,1.41-1.27,2.67-1.91,3.92-.4.79-.93,1.44-2,1s-1-1.28-.71-2a26.51,26.51,0,0,1,3.67-7.76A3.57,3.57,0,0,1,6.2,11.38a15.36,15.36,0,0,1,6.31.16c.55.15,1.18.27.32,1a3.17,3.17,0,0,0-.32,4.5,2.82,2.82,0,0,0,4.08,0,3.17,3.17,0,0,0-.19-4.51L16,12.11A4.35,4.35,0,0,1,19,11.19c4.36-.16,5.27.33,7.19,3.8a37.6,37.6,0,0,1,2.11,4.83,5,5,0,0,1,.31,1.39,1.33,1.33,0,0,1-.85,1.55,1.29,1.29,0,0,1-1.61-.7c-.57-1-1.08-2-1.62-3.07a2.94,2.94,0,0,0-.79-1.08c.35,1.62.66,3.25,1.06,4.85C25,23.57,25,24,24,23.84s-1.08.33-1.09,1.11c-.06,3.88-.42,3.11-3.42,3.17-1.07,0-2.15,0-3.27,0l.47-3c1.62.63,2,.32,2-1.44,0-.28,0-.56,0-.84.36-4.32-2.64-4.89-5.52-4.58a3.53,3.53,0,0,0-2.78,3.63c.07.79,0,1.6,0,2.4s.42,1.3,1.27,1.23c.31,0,.62-.28.73.23.15.74.28,1.47.4,2.21a1.27,1.27,0,0,1-.44.08c-1.64-.21-3.27.09-4.91,0-1,0-1.27-.48-1.45-1.46C5.56,23.73,5.64,20.7,4.75,17.7Z"/>
            <path fill="white" d="M24.93,5.29a5,5,0,0,1-5.2,5.08A5.14,5.14,0,0,1,15,5a5.1,5.1,0,0,1,5.24-5A5.14,5.14,0,0,1,24.93,5.29Z"/>
            <path fill="white" d="M14,5.22a5.06,5.06,0,0,1-5,5.16A5,5,0,0,1,4.12,5.24,5,5,0,0,1,9,0,5.09,5.09,0,0,1,14,5.22Z"/>
        </g>
    </g>
</svg>