<svg xmlns="http://www.w3.org/2000/svg" viewBox="0 0 29.71 25.55">
    <title>fantasy</title>
    <g id="Capa_2" data-name="Capa 2">
        <g id="Layer_1" data-name="Layer 1">
            <path fill="white" d="M9.56,20.31c.3-2.47.6-4.84.85-7.21.1-1,.39-1.45,1.52-1.38a50.93,50.93,0,0,0,5.87,0c1.17-.07,1.38.43,1.47,1.43.26,2.71.62,5.41,1,8.3.4-.72.13-1.32.13-1.88,0-3.44,0-6.88,0-10.32,0-.81-.19-1.21-1.06-1.09-.59.08-.87-.14-.89-.78Q18.38,4.14,18.22.9c0-.63.21-.82.82-.85,1.91-.09,1.91-.12,2,1.76,0,.64.08,1.28.09,1.92s.22.72.73.7.74-.18.73-.71c0-.92,0-1.84,0-2.76,0-.68.21-1,.89-.9a9,9,0,0,0,1.2,0c.51,0,.72.19.71.71,0,1,0,1.92,0,2.88,0,.46.08.76.64.77s.8-.19.8-.76c0-.92.09-1.84.08-2.76,0-.61.22-.88.84-.84a7.52,7.52,0,0,0,1.2,0c.68-.06.81.28.78.87-.09,2.08-.17,4.15-.21,6.23,0,.76-.28,1.11-1.07,1s-1,.29-1,1c0,4.11-.09,8.21-.13,12.32,0,.33-.18.86.39.8,1.06-.1.93.57.93,1.22,0,2,0,2-2.06,2-8.07,0-16.15,0-24.22,0-1,0-1.41-.24-1.27-1.26a11.47,11.47,0,0,0,0-1.32c0-.29.06-.64.42-.61,1.15.11.92-.68.91-1.33-.07-4-.16-7.91-.2-11.87,0-.78-.25-1.12-1-1S.26,8,.25,7.3C.21,5.22.11,3.14,0,1.06,0,.38.13-.09.9.08S2.73-.58,2.78.95c0,.92.1,1.84.12,2.75,0,.45.08.78.66.75s.81-.2.79-.79c0-.92,0-1.84,0-2.76,0-.61.21-.81.83-.85,1.9-.1,2,0,1.95,1.9,0,.56,0,1.12,0,1.67s.12.84.73.81.78-.21.77-.79c0-.88.07-1.76,0-2.64,0-.73.24-1,1-1a5.91,5.91,0,0,0,1.08,0c.62,0,.84.2.81.84-.11,2.16-.19,4.31-.23,6.47,0,.77-.45.82-1,.78s-.93,0-.92.73c0,3.72,0,7.44,0,11.15C9.37,20.09,9.44,20.15,9.56,20.31Zm7.88.54h0c0-.84.06-1.68,0-2.52a2.35,2.35,0,0,0-2.63-2.22,2.33,2.33,0,0,0-2.51,2.32c-.05,1,0,2,0,3,0,2.32,0,2.32,2.33,2.31.95,0,2.28.34,2.74-.14S17.44,21.8,17.44,20.85Z"/>
        </g>
    </g>
</svg>