<svg xmlns="http://www.w3.org/2000/svg" viewBox="0 0 26.17 28.81">
    <title>history</title>
    <g id="Capa_2" data-name="Capa 2">
        <g id="Layer_1" data-name="Layer 1">
            <path fill="white" d="M5.76,15.74a10.23,10.23,0,0,1-.79-4c-.1-1.83,0-3.67-.06-5.51a.83.83,0,0,1,.79-1A5.57,5.57,0,0,0,10.48.82c.13-.52.43-.65.94-.69a61.48,61.48,0,0,1,8.15,0A1,1,0,0,1,20.62,1a5.54,5.54,0,0,0,4.55,4.24c.47.1.94.14,1,.83.06,3.79.31,7.61-1.29,11.21a17,17,0,0,1-7.3,8.3,3.63,3.63,0,0,1-3.66.14c-.59-.31-1.35-.34-.59-1.35.37-.49-.48-.82-.84-1.09-.7-.54-.66-.88,0-1.45,2-1.74,3.88-3.57,5.86-5.31a2.69,2.69,0,0,0,1.06-2.36c-.09-2-.06-3.92,0-5.87,0-.72-.17-1-.94-.9-2.22.29-4.44.52-6.66.76a1.41,1.41,0,0,0-1,.73c-1.29,1.83-2.59,3.65-3.89,5.47C6.49,14.78,6.15,15.21,5.76,15.74Z"/>
            <path fill="white" d="M17.34,12.58c.44,1.46-.42,2.59-1.72,3.67-1.9,1.58-3.69,3.29-5.49,5-.48.45-.79.5-1.26,0-.84-.84-2.24-1.5-2.48-2.47S7.49,16.89,8.14,16c1.15-1.67,2.37-3.3,3.51-5a2,2,0,0,1,1.65-1,23.49,23.49,0,0,0,3.09-.36c.79-.15,1,.13,1,.86S17.34,11.69,17.34,12.58Z"/>
            <path fill="white" d="M3.51,28.81c-.32,0-.44-.22-.61-.37L.46,26.31c-.7-.61-.6-1.56.27-1.64,1.11-.11,1.53-.87,2.11-1.51,1.34-1.5,1.31-1.51.1-3.08-.28-.36-.87-.65-.31-1.3s.84-.87,1.58-.18C6.09,20.37,8.08,22,10,23.77c.3.27.83.53.31,1s-.58,1-1.42.52c-2-1.26-2.08-1.22-3.68.63-.41.48-1,.83-.83,1.72C4.5,28.15,3.88,28.5,3.51,28.81Z"/>
        </g>
    </g>
</svg>