<svg xmlns="http://www.w3.org/2000/svg" viewBox="0 0 23.7 28.16">
    <title>musical</title>
    <g id="Capa_2" data-name="Capa 2">
        <g id="Layer_1" data-name="Layer 1">
            <path fill="white" d="M23.7,13q0,4.38,0,8.76a12.46,12.46,0,0,1-.06,1.44c-.51,4.27-4,6.11-7.87,4.13a2.79,2.79,0,0,1-.5-5,6.54,6.54,0,0,1,3.25-1.44c.65-.09.86-.38.85-1q0-5.28,0-10.56c0-.68-.23-.9-.91-.89-2.56,0-5.12,0-7.68,0-.88,0-1,.34-1,1.12,0,4.44,0,8.88-.09,13.31s-4.1,6.58-8,4.35a2.73,2.73,0,0,1-.56-4.68A5.85,5.85,0,0,1,4.37,21c.89-.13,1.07-.51,1.06-1.33,0-5.2,0-10.4,0-15.6,0-1.73.38-2.34,2-3A17.33,17.33,0,0,1,13,.06C15.24,0,17.52,0,19.8,0c2.94.08,3.9,1.14,3.9,4.08S23.7,10,23.7,13Z"/>
        </g>
    </g>
</svg>