<svg xmlns="http://www.w3.org/2000/svg" viewBox="0 0 35.09 31.59">
    <title>mystery</title>
    <g id="Capa_2" data-name="Capa 2">
        <g id="Layer_1" data-name="Layer 1">
            <path fill="white" d="M12.44,8.43a9,9,0,0,1,9.13,8.49,1.28,1.28,0,0,0,1.14,1.37c2,.52,4,.6,6,.92a14.05,14.05,0,0,1,4.94,1.34,2.35,2.35,0,0,1,.88,3.65,2.7,2.7,0,0,1-2.9.95,25.87,25.87,0,0,1-6-2A38.48,38.48,0,0,0,22,21.8a1.39,1.39,0,0,0-1.86.67A8.93,8.93,0,0,1,9,25.77,9,9,0,0,1,12.44,8.43Zm5.79,9a5.65,5.65,0,0,0-5.62-5.65,5.66,5.66,0,1,0,0,11.31A5.6,5.6,0,0,0,18.24,17.47Z"/>
            <path fill="white" d="M7.54,26.79a13.15,13.15,0,0,0,6.66,1c1-.09,1.14.85,1.47,1.51s.75,1.41.34,1.91-1.36.29-2,.11A10.74,10.74,0,0,1,7.54,26.79Z"/>
            <path fill="white" d="M11,7.06c-2.67.77-1.88,1.06-3.2-1.13a22,22,0,0,1-1.89-4.5C5.59.44,5.9,0,6.94,0A2,2,0,0,1,9.08,1.73C9.47,3.6,9.77,5.47,11,7.06Z"/>
            <path fill="white" d="M1.86,4.27A1.2,1.2,0,0,1,2.76,3a1.3,1.3,0,0,1,1.59.49,4.51,4.51,0,0,1,.8,1.85c.19.73.36,1.47.61,2.18.58,1.64.48,2-.88,2.94-.32.23-.49.23-.63-.11C3.47,8.49,2.33,6.76,1.91,4.75A3.88,3.88,0,0,1,1.86,4.27Z"/>
            <path fill="white" d="M11.12,1.87c0-.82.12-1.38.76-1.59a1.16,1.16,0,0,1,1.44.54,18.74,18.74,0,0,1,2.42,6.08c.06.24.06.6-.25.52-.64-.18-1.52.06-1.91-.51A14.94,14.94,0,0,1,11.12,1.87Z"/>
            <path fill="white" d="M25.43,10a7.17,7.17,0,0,1-1.5,4.32c-.35.38-.68.7-.86-.1a12.91,12.91,0,0,1-.57-5c.22-1.38.71-2.11,1.6-2,1.21.18,1.23,1.19,1.32,2.11C25.44,9.51,25.43,9.64,25.43,10Z"/>
            <path fill="white" d="M22,23.71c.45.15,1.16.12.67,1-.6,1.12-1.13,2.29-1.72,3.42a1,1,0,0,1-1.25.67,1.78,1.78,0,0,1-1.28-1.28c-.22-.64.19-.85.58-1.13a10.44,10.44,0,0,0,2.21-2.18C21.4,24,21.57,23.7,22,23.71Z"/>
            <path fill="white" d="M2.09,15.49A8.07,8.07,0,0,1,0,10.78C0,10.24.05,9.7.7,9.57A1.12,1.12,0,0,1,2,10.33C2.67,12,3.6,13.65,2.09,15.49Z"/>
            <path fill="white" d="M9,17.26a3.47,3.47,0,0,1,2.46-3.32A3.53,3.53,0,0,1,15.24,15a1.12,1.12,0,0,1,.11,1.59,7.56,7.56,0,0,1-5,2.83C9.6,19.62,9,18.58,9,17.26Z"/>
        </g>
    </g>
</svg>