<svg xmlns="http://www.w3.org/2000/svg" viewBox="0 0 28.28 28.1">
    <title>romance</title>
    <g id="Capa_2" data-name="Capa 2">
        <g id="Layer_1" data-name="Layer 1">
            <path fill="white" d="M4.93,9.68a4.53,4.53,0,0,1,3.88,2c.5.69.76.64,1.28,0a4.78,4.78,0,0,1,6.06-1.58,5,5,0,0,1,2.63,5.4,12.22,12.22,0,0,1-2.49,4.86c-1.93,2.55-4.12,4.88-6.22,7.28-.41.47-.69.65-1.19.07-2.24-2.6-4.65-5.05-6.64-7.86A11.41,11.41,0,0,1,.08,15.38,4.85,4.85,0,0,1,4.93,9.68Z"/>
            <path fill="white" d="M20.65,16.73c.72-4.2-.93-7.46-4.2-8.69a6.46,6.46,0,0,0-5.13.17c-.61.28-.88.2-1.16-.43a5.81,5.81,0,0,1-.35-4.64A4.72,4.72,0,0,1,18,1.82c.68.8,1,1,1.77,0A4.84,4.84,0,0,1,25.69.53a5.14,5.14,0,0,1,2.47,5.61,8,8,0,0,1-1,2.44A53.54,53.54,0,0,1,20.65,16.73Z"/>
        </g>
    </g>
</svg>