<svg xmlns="http://www.w3.org/2000/svg" viewBox="0 0 24.34 28.23">
    <title>sci-fi</title>
    <g id="Capa_2" data-name="Capa 2">
        <g id="Layer_1" data-name="Layer 1">
            <path fill="white" d="M10.86,0c4.52,0,7.5.74,10.25,2.4a6.32,6.32,0,0,1,3.16,5.2,13.82,13.82,0,0,1-2.6,10.08,67.26,67.26,0,0,0-4.76,7.47c-1.59,2.74-3.92,3.67-6.54,2.74a5.37,5.37,0,0,1-2.83-2.65,93.09,93.09,0,0,0-5.36-8.37C-.1,13.62-.37,9.94.36,6.17A6,6,0,0,1,3.8,2.08,16.37,16.37,0,0,1,10.86,0Zm6.66,16.13a6.89,6.89,0,0,0,2-.25A3.15,3.15,0,0,0,21.62,12c-.31-1.21-1.75-1.86-3.35-1.49a6.75,6.75,0,0,0-4.58,3.86c-.37.73-.09,1.11.65,1.3A14.9,14.9,0,0,0,17.52,16.13Zm-10.67,0a14.76,14.76,0,0,0,3.2-.46c.56-.13.93-.43.73-1C10,12.4,7.29,10,4.49,10.51A2.06,2.06,0,0,0,2.66,12.8C2.67,15,4.11,16.16,6.85,16.13ZM10.5,21c0,.23-.1.49.14.65s.35,0,.5-.17a1.34,1.34,0,0,1,2.09,0c.38.38.63.28.68-.26.08-.79-.82-2.34-1.48-2.4-1.19-.11-1.47.85-1.81,1.7A3.29,3.29,0,0,0,10.5,21Z"/>
        </g>
    </g>
</svg>