<svg xmlns="http://www.w3.org/2000/svg" viewBox="0 0 28.78 28.83">
    <title>sport_1</title>
    <g id="Capa_2" data-name="Capa 2">
        <g id="Layer_1" data-name="Layer 1">
            <path fill="white" d="M0,14.43C.27,4.87,8-.6,15.46.05a14.4,14.4,0,1,1-2.28,28.72A14.16,14.16,0,0,1,0,14.43Zm25.61-4c-.34.27-.29,1.26-1.13.59-1.68-1.35-3.4-2.6-4-4.89C20.22,5,20.08,5,21.14,4.6a9.83,9.83,0,0,0-7.73-2c.39.14.55.18.69.25.9.47.64.79-.07,1.26A8.74,8.74,0,0,1,9.41,5.89c-1.06,0-2,.31-1.77-1.43A10.39,10.39,0,0,0,2.88,11a4.86,4.86,0,0,0,.86-.43c.68-.55,1-.28,1.35.4a5.66,5.66,0,0,1,.55,5.31C4.8,18.36,4.91,18.4,3,17.37c0,0-.13,0-.31.05a12,12,0,0,0,5.81,7.48c-.23-.85-.39-1.42-.54-2-.1-.38-.14-.73.42-.75,2-.07,4.06-.59,5.89,1s1.81,1.36,0,2.84a4.76,4.76,0,0,0-.34.38,11.61,11.61,0,0,0,8.15-2.85c-.22-.76-1.5.14-1.2-1,.55-2.1.93-4.35,3.18-5.49.39-.2.69-.62,1.08-.73.62-.17.28.83.84.86A10.1,10.1,0,0,0,25.63,10.46Z"/>
            <path fill="white" d="M19,13.34c0,2.64,0,2.64-2.39,3.55C13.78,18,13.78,18,12,15.48c-1.5-2.07-1.5-2.07-.05-4.23,1.65-2.45,1.65-2.45,4.48-1.58C19,10.47,19,10.47,19,13.34Z"/>
        </g>
    </g>
</svg>