<?xml version="1.0" ?><svg id="Layer_1" style="enable-background:new 0 0 24 24;" version="1.1" viewBox="0 0 24 24" xml:space="preserve" xmlns="http://www.w3.org/2000/svg" xmlns:xlink="http://www.w3.org/1999/xlink"><path  fill="white" d="M21.372,15.146c-0.189-0.211-0.555-0.211-0.744,0C20.356,15.449,19,17.009,19,17.98  c0,1.103,0.897,2,2,2c1.102,0,2-0.897,2-2C23,17.009,21.643,15.449,21.372,15.146z M22.092,1.329  c-0.063-0.15-0.194-0.26-0.352-0.296c-0.159-0.039-0.324,0.007-0.444,0.117L1.664,18.604c-0.413,0.371-0.648,0.88-0.663,1.435  c-0.015,0.555,0.192,1.076,0.585,1.468l0.888,0.888c0.388,0.388,0.899,0.583,1.414,0.583c0.47,0,0.941-0.164,1.32-0.495l6.352-5.653  c0,0,2.298,2.17,2.414,2.217c0.152,0.448,0.274,1.197,0.037,2.331C14.004,21.411,14,21.446,14,21.48c0,0.855,0.644,1.5,1.5,1.5  c0.927,0,1.5-0.833,1.5-1.604c0-0.322-0.05-0.531-0.09-0.699c-0.019-0.079-0.038-0.157-0.049-0.252  c-0.284-2.529,0.304-4.194,2.082-5.923C22.767,11.095,24.003,5.924,22.092,1.329z M3.856,20.836  c-0.194,0.194-0.511,0.192-0.707-0.004c-0.197-0.197-0.199-0.513-0.005-0.707c0.194-0.194,0.511-0.192,0.707,0.004  C4.048,20.325,4.05,20.642,3.856,20.836z M17.469,9.866c-0.003,0.395-0.01,1.055-0.121,1.179c-0.176,0.133-0.394,0.255-0.635,0.393  c-0.833,0.477-1.974,1.131-2.836,2.699c-0.321,0.583-0.482,1.118-0.556,1.61l-2.612-2.51l8.468-7.528  c0.183,0.372,0.298,0.74,0.23,0.97c-0.016,0.05-0.055,0.184-0.405,0.237C17.495,7.145,17.479,8.782,17.469,9.866z" id="XMLID_127_" style="fill:white;"/><g/><g/><g/><g/><g/><g/><g/><g/><g/><g/><g/><g/><g/><g/><g/></svg>