<svg xmlns="http://www.w3.org/2000/svg" viewBox="0 0 36.71 26.53">
    <title>thriller</title>
    <g id="Capa_2" data-name="Capa 2">
        <g id="Layer_1" data-name="Layer 1">
            <path fill="white" d="M36.71,4.31c-1.47.28-2.54.52-3.63.69a3.58,3.58,0,0,0-3.18,3.12c-.22,1.13-.33,2.29-.49,3.44-.62,4.23-2.32,7.69-6.6,9.36-1,.39-1.79,1.49-1.59,2.28s.41,2.33,1.93,2.36c.34,0,.52.14.52.5s-.34.47-.66.47H17.25c-.36,0-.63-.05-.62-.51s.21-.47.53-.47.39,0,.66-.05c-.34-1.35-2.52-2.09-1.07-3.86l-3.47-.76,6.09-4C13.14,19.51,6.74,21.58,0,23.64c.33-.65.52-1.07.74-1.46.54-.93.9-1.82.17-2.87-.55-.79.3-.81.71-.95a65.2,65.2,0,0,0,10.79-4.59,35.55,35.55,0,0,0,7.78-5.35A7.49,7.49,0,0,0,22.52,4.5c.93-4.2,5-5.8,8.5-3.35A45,45,0,0,0,36.71,4.31ZM20.12,21.62c-1.13.07-2,.92-1.9,1.62A2.39,2.39,0,0,0,21,25.43C20.64,24.2,18.6,23.46,20.12,21.62Z"/>
        </g>
    </g>
</svg>