<svg xmlns="http://www.w3.org/2000/svg" viewBox="0 0 38.64 18.75">
    <title>war</title>
    <g id="Capa_2" data-name="Capa 2">
        <g id="Layer_1" data-name="Layer 1">
            <path fill="white" d="M26.55,14.48,6.92,13.41l-4.67-.25c-.3,0-.77.08-.83-.3C1.23,11.56.27,10.59,0,9.31s.27-2,1.55-2q12.89-.1,25.79-.16a1.93,1.93,0,0,1,1,.25c1.51.9,3.07,1.73,4.53,2.7,2,1.35,2.14,3.36.34,5a33.16,33.16,0,0,1-4.82,3.34,2.05,2.05,0,0,1-1.16.24H4.87a2.08,2.08,0,0,1-2.16-1.37,1.83,1.83,0,0,1,1.78-2.73q10.44,0,20.87,0h1.18Z"/>
            <path fill="white" d="M38.61,3.84c-.12.41.29,1.19-.3,1.32A2.61,2.61,0,0,1,35.82,5a1.2,1.2,0,0,0-.94-.33l-7.55,0c-1.12,0-2.31-.14-2.81,1.28,0,.1-.43.11-.66.11C19,6,14.11,6,9.24,6c-.74,0-.82-.26-.58-.84a3.13,3.13,0,0,0,.22-.56c.47-2.38,1.56-3.91,4.32-3.27A.6.6,0,0,0,14,.78c0-.72.48-.79,1.06-.78C16,0,17,0,17.94,0c.63,0,1.22,0,1.24.88,0,.5.42.5.79.51h2c.44,0,.88,0,1.14.45.08.16.3.35.44.35,1.08,0,2,.57,3.07.59,2.55.06,5.12-.1,7.66.08,1.05.07,1.6-.82,2.59-.76C38.61,2.21,38.61,2.12,38.61,3.84Z"/>
        </g>
    </g>
</svg>