<svg xmlns="http://www.w3.org/2000/svg" viewBox="0 0 28.78 27.31">
    <title>western</title>
    <g id="Capa_2" data-name="Capa 2">
        <g id="Layer_1" data-name="Layer 1">
            <path fill="white" d="M0,10.55a1.16,1.16,0,0,1,1.43-.33,1.18,1.18,0,0,0,1.7-.81,2.35,2.35,0,0,1,1.4-1.36c2-.89,3.9-1.83,6.07-2.85C9.23,4.53,8,4,6.88,3.4A2.05,2.05,0,0,1,6,.55c.22-.34.47-.57.88-.34A1,1,0,0,0,7.94.13C8.46-.13,9,0,9,.74c0,.52.3.6.6.75a25.91,25.91,0,0,1,2.79,1.38,3.44,3.44,0,0,0,4.09,0c.74-.46,1.59-.73,2.37-1.15.44-.23,1.15-.3.92-1.13,0-.12.18-.36.33-.45a4.07,4.07,0,0,1,2.82.69,2.05,2.05,0,0,1-1.18,2.66L14.15,7.08a2.56,2.56,0,0,0-1.66,3.06,1.74,1.74,0,0,1-.86,2c-.37.23-.67.57-1,.82-.8.57-1,1.17-.26,2a1.35,1.35,0,0,1-.16,2.18l-.79.73a1.37,1.37,0,0,1-2.19,0c-.62-.71-1.1-.55-1.71,0C4.22,19,4,19.7,4.7,21.3A21.77,21.77,0,0,0,6,23.83c.29.49.39.82-.19,1.17a26.06,26.06,0,0,1-4.63,2.22c-.39.14-.72.17-.76-.38-.16-2.46-.68-4.89-.35-7.4A5.93,5.93,0,0,1,2.6,15.26a1.68,1.68,0,0,0,.68-2C3,12.58,3,11.35,1.72,11.36,1.07,11.37.82,10.6,0,10.55Zm7.12,6.19c.27.65.62,1.4,1.39,1.08A2.87,2.87,0,0,0,10.31,16a.53.53,0,0,0,0-.35c-.24-.48-.54-1-1.11-1-.75,0-1.22.59-1.62,1.11s.19.76.44,1.09.56.26.24.67Z"/>
            <path fill="white" d="M28.64,10.44a9.26,9.26,0,0,1-2.13,1c-1.16.22-1.52,2.88-.48,3.65a6.61,6.61,0,0,1,2.72,6.17c-.11,1.79-.31,3.58-.45,5.37,0,.51-.16.76-.73.56a27,27,0,0,1-4.85-2.33c-.42-.25-.37-.5-.14-.88a27.66,27.66,0,0,0,1.48-2.74c.7-1.56.41-2.46-.91-3.58a1,1,0,0,0-1.55,0c-1.06,1-1.41.91-2.8-.38-1.1-1-1.18-1.4-.31-2.51a1.07,1.07,0,0,0-.19-1.73,1.85,1.85,0,0,0-.38-.29C16,12,16.28,10.26,16.12,8.7a.45.45,0,0,1,.3-.46L16.85,8c3.83-1.91,4.09-1.9,7.83.28a1.68,1.68,0,0,1,.78.86c.37.93.91,1.49,2,1A1,1,0,0,1,28.64,10.44ZM21.5,17c-.42.09-.61.61-1.12.54,0-.34.25-.5.45-.67.54-.48.68-.92,0-1.44s-1.12-1.11-1.93-.34-.67,1.21.65,2.36C20.5,18.21,20.84,18.14,21.5,17Z"/>
        </g>
    </g>
</svg>