<svg id="Capa_1" data-name="Capa 1" xmlns="http://www.w3.org/2000/svg" viewBox="0 0 34.8 34.7"><defs><style>.cls-1{fill:none;stroke:#fff;stroke-linecap:round;stroke-linejoin:round;stroke-width:2px;}.cls-2{fill:#fff;}</style></defs><title>facebook</title><path class="cls-1" d="M23.5,7.5h-3a5,5,0,0,0-5,5v3h-3v4h3v8h4v-8h3l1-4h-4v-3a.94.94,0,0,1,1-1h3Z" transform="translate(-0.1 -0.3)"/><path class="cls-2" d="M17.5,2.3A15.35,15.35,0,1,1,2.1,17.6,15.41,15.41,0,0,1,17.5,2.3m0-2A17.35,17.35,0,1,0,34.9,17.6,17.33,17.33,0,0,0,17.5.3Z" transform="translate(-0.1 -0.3)"/></svg>