<?xml version="1.0" encoding="utf-8"?>
<!-- Generator: Adobe Illustrator 21.0.0, SVG Export Plug-In . SVG Version: 6.00 Build 0)  -->
<svg version="1.1" id="Capa_1" xmlns="http://www.w3.org/2000/svg" xmlns:xlink="http://www.w3.org/1999/xlink" x="0px" y="0px"
	 viewBox="0 0 34.6 34.6" style="enable-background:new 0 0 34.6 34.6;" xml:space="preserve">
<style type="text/css">
	.st0{fill:none;stroke:#FFFFFF;stroke-width:2;stroke-linecap:round;stroke-linejoin:round;}
	.st1{fill:#FFFFFF;}
</style>
<path class="st0" d="M12.3,7.3h10c2.8,0,5,2.2,5,5v10c0,2.8-2.2,5-5,5h-10c-2.8,0-5-2.2-5-5v-10C7.3,9.6,9.6,7.3,12.3,7.3z"/>
<path class="st0" d="M21.3,16.7c0.3,2.2-1.2,4.2-3.4,4.5c-2.2,0.3-4.2-1.2-4.5-3.4c-0.3-2.2,1.2-4.2,3.4-4.5c0.4-0.1,0.8-0.1,1.2,0
	C19.7,13.6,21.1,14.9,21.3,16.7z"/>
<line class="st0" x1="22.8" y1="11.8" x2="22.8" y2="11.8"/>
<g>
	<path class="st1" d="M17.3,2c8.5,0,15.4,6.9,15.4,15.4s-6.9,15.3-15.4,15.3S1.9,25.8,1.9,17.3S8.8,2,17.3,2 M17.3,0
		C7.7,0-0.1,7.7-0.1,17.3s7.8,17.4,17.4,17.4s17.4-7.8,17.4-17.4S26.9,0,17.3,0L17.3,0z"/>
</g>
</svg>
