<?xml version="1.0" encoding="utf-8"?>
<!-- Generator: Adobe Illustrator 21.0.0, SVG Export Plug-In . SVG Version: 6.00 Build 0)  -->
<svg version="1.1" id="Capa_1" xmlns="http://www.w3.org/2000/svg" xmlns:xlink="http://www.w3.org/1999/xlink" x="0px" y="0px"
	 viewBox="0 0 36 35" style="enable-background:new 0 0 36 35;" xml:space="preserve">
<style type="text/css">
	.st0{fill:none;stroke:#FFFFFF;stroke-width:2;stroke-linecap:round;stroke-linejoin:round;}
	.st1{fill:#FFFFFF;}
</style>
<path class="st0" d="M29,8c-1,0.7-2,1.2-3.1,1.5c-1.6-1.9-4.5-2.1-6.3-0.4c-1,0.9-1.6,2.1-1.5,3.4v1c-3.6,0.1-6.9-1.6-9-4.5
	c0,0-4,9,5,13c-2.1,1.4-4.5,2.1-7,2c9,5,20,0,20-11.5c0-0.3,0-0.6-0.1-0.8C27.9,10.7,28.7,9.4,29,8z"/>
<g>
	<path class="st1" d="M18.3,2c8.5,0,15.4,6.9,15.4,15.4s-6.9,15.3-15.4,15.3S2.9,25.8,2.9,17.3S9.8,2,18.3,2 M18.3,0
		C8.7,0,0.9,7.7,0.9,17.3s7.8,17.4,17.4,17.4s17.4-7.8,17.4-17.4S27.9,0,18.3,0L18.3,0z"/>
</g>
</svg>
